<svg id="fusion" xmlns="http://www.w3.org/2000/svg" xmlns:xlink="http://www.w3.org/1999/xlink" viewBox="0 0 40 40"><style>.st0{fill:#ced0d6}.st1{fill:#fff}.st2{clip-path:url(#SVGID_2_);fill:#aeddac}</style><circle class="st0" cx="20" cy="20" r="18"/><path class="st1" d="M20 3.9c8.9 0 16.1 7.2 16.1 16.1S28.9 36.1 20 36.1 3.9 28.9 3.9 20c0-8.9 7.2-16.1 16.1-16.1z"/><defs><path id="SVGID_1_" d="M20 2c6.7 0 12.9 3.7 16 9.7-.1.3-.4.6-.8.7-.5.3-1.3-.1-1.6 0s-1-.1-1.6 0 .4.7 0 1.6c-.6 1-1.4 1.8-2.4 2.4-1.2 1-2.8 1.4-3.2 4s.5 5.9-.8 5.6c-.6-.1-2.1-2.2-2.4-3.2-.2-.9-1.5-2.5-1.6-3-.2-1.5-.9-2.6 0-4.2.4-.5 1-.8 1.6-.8.4 0 .4-1.2.8-1.6s-.4-2.6-.8-3.2-1.7-.2-2.4 0-.8-.8-.8-.8 0-1.6-.7-1.6c-.8-.1-1.6-.1-2.4 0-.8.2-1.1-.2-1.6 0-.6.4-1.2 1-1.6 1.6-.9 1-.2.9-.8.8s-.1-2.7-.8-3.2-1 .2-1.6 0c-.4-.4-.7-.8-1-1.4C12.5 3.2 16.2 2 20 2zm-7.8 21.6c.5 1.2-.8 3.6-1.6 4.8-1 1.6-2.1 3-3.4 4.3-2.8-2.8-4.5-6.4-5.1-10.2.9-.2 3.6 1.1 4.5 1.1 2.1-.1 2.7-.8 3.2-.8s1.9-.4 2.4.8z"/></defs><clipPath id="SVGID_2_"><use xlink:href="#SVGID_1_" overflow="visible"/></clipPath><path class="st2" d="M20 3.9c8.9 0 16.1 7.2 16.1 16.1S28.9 36.1 20 36.1 3.9 28.9 3.9 20c0-8.9 7.2-16.1 16.1-16.1z"/></svg>